<svg width="1730" height="436" viewBox="0 0 1730 436" fill="none" xmlns="http://www.w3.org/2000/svg">
<rect width="1730" height="436" fill="#D9D9D9"/>
<path d="M138.792 303L169.798 125.266H191.893L160.887 303H138.792ZM184.568 303L215.696 125.266H237.791L206.663 303H184.568ZM255.979 196.677H128.904V176.047H255.979V196.677ZM246.702 252.951H119.749V232.443H246.702V252.951ZM319.456 274.802L354.856 125.266H374.632L379.148 150.168L341.429 303H320.188L319.456 274.802ZM301.268 125.266L330.564 274.802L328.123 303H304.441L265.013 125.266H301.268ZM410.276 274.191L439.207 125.266H475.462L436.155 303H412.474L410.276 274.191ZM385.74 125.266L421.385 275.412L420.408 303H399.168L361.204 150.046L366.087 125.266H385.74ZM614.622 274.436V303H520.018V274.436H614.622ZM531.98 125.266V303H495.359V125.266H531.98ZM602.293 197.653V225.485H520.018V197.653H602.293ZM614.5 125.266V153.952H520.018V125.266H614.5ZM705.564 224.997H659.91L659.666 199.851H697.996C704.751 199.851 710.285 198.996 714.598 197.287C718.911 195.497 722.125 192.933 724.241 189.597C726.438 186.179 727.537 182.028 727.537 177.146C727.537 171.612 726.479 167.136 724.363 163.718C722.329 160.3 719.114 157.818 714.72 156.271C710.407 154.725 704.832 153.952 697.996 153.952H672.605V303H635.984V125.266H697.996C708.331 125.266 717.568 126.242 725.706 128.195C733.925 130.148 740.883 133.119 746.58 137.106C752.277 141.094 756.631 146.14 759.642 152.243C762.653 158.265 764.158 165.427 764.158 173.728C764.158 181.052 762.49 187.806 759.153 193.991C755.898 200.176 750.73 205.222 743.65 209.128C736.652 213.034 727.496 215.191 716.185 215.598L705.564 224.997ZM703.978 303H649.9L664.183 274.436H703.978C710.407 274.436 715.656 273.418 719.725 271.384C723.794 269.268 726.805 266.42 728.758 262.839C730.711 259.258 731.688 255.148 731.688 250.51C731.688 245.301 730.792 240.785 729.002 236.96C727.293 233.135 724.526 230.205 720.701 228.171C716.876 226.055 711.831 224.997 705.564 224.997H670.286L670.53 199.851H714.476L722.898 209.738C733.722 209.576 742.43 211.488 749.021 215.476C755.695 219.382 760.537 224.468 763.548 230.734C766.64 237.001 768.187 243.715 768.187 250.876C768.187 262.269 765.704 271.872 760.74 279.685C755.776 287.416 748.493 293.234 738.89 297.141C729.368 301.047 717.731 303 703.978 303ZM893.797 125.266H930.296V242.697C930.296 256.369 927.366 267.884 921.507 277.243C915.729 286.602 907.713 293.641 897.459 298.361C887.286 303.081 875.568 305.441 862.303 305.441C849.038 305.441 837.238 303.081 826.902 298.361C816.648 293.641 808.592 286.602 802.732 277.243C796.954 267.884 794.065 256.369 794.065 242.697V125.266H830.687V242.697C830.687 250.673 831.948 257.183 834.471 262.229C836.993 267.274 840.615 270.977 845.335 273.337C850.136 275.697 855.792 276.877 862.303 276.877C868.976 276.877 874.632 275.697 879.271 273.337C883.991 270.977 887.571 267.274 890.013 262.229C892.535 257.183 893.797 250.673 893.797 242.697V125.266ZM999.388 125.266V303H962.889V125.266H999.388ZM1147.95 274.436V303H1058.47V274.436H1147.95ZM1070.31 125.266V303H1033.69V125.266H1070.31ZM1223.51 303H1184.81L1185.06 274.436H1223.51C1233.11 274.436 1241.21 272.279 1247.8 267.966C1254.39 263.571 1259.36 257.183 1262.69 248.801C1266.11 240.419 1267.82 230.287 1267.82 218.405V209.738C1267.82 200.624 1266.84 192.608 1264.89 185.69C1263.02 178.773 1260.21 172.954 1256.47 168.234C1252.72 163.514 1248.13 159.974 1242.67 157.614C1237.22 155.173 1230.96 153.952 1223.88 153.952H1184.08V125.266H1223.88C1235.76 125.266 1246.62 127.3 1256.47 131.369C1266.4 135.357 1274.98 141.094 1282.22 148.581C1289.47 156.068 1295.04 165.02 1298.95 175.437C1302.94 185.772 1304.93 197.287 1304.93 209.982V218.405C1304.93 231.019 1302.94 242.535 1298.95 252.951C1295.04 263.368 1289.47 272.32 1282.22 279.807C1275.06 287.212 1266.48 292.95 1256.47 297.019C1246.54 301.006 1235.55 303 1223.51 303ZM1205.56 125.266V303H1168.94V125.266H1205.56ZM1450.8 274.436V303H1356.2V274.436H1450.8ZM1368.16 125.266V303H1331.54V125.266H1368.16ZM1438.47 197.653V225.485H1356.2V197.653H1438.47ZM1450.68 125.266V153.952H1356.2V125.266H1450.68ZM1472.17 125.266H1538.45C1552.04 125.266 1563.72 127.3 1573.48 131.369C1583.33 135.438 1590.9 141.46 1596.19 149.436C1601.48 157.411 1604.12 167.217 1604.12 178.854C1604.12 188.376 1602.5 196.555 1599.24 203.391C1596.07 210.145 1591.55 215.801 1585.69 220.358C1579.91 224.834 1573.12 228.415 1565.31 231.101L1553.71 237.204H1496.09L1495.85 208.64H1538.69C1545.12 208.64 1550.45 207.5 1554.69 205.222C1558.92 202.943 1562.09 199.769 1564.21 195.7C1566.4 191.631 1567.5 186.911 1567.5 181.54C1567.5 175.843 1566.44 170.92 1564.33 166.77C1562.21 162.619 1559 159.445 1554.69 157.248C1550.37 155.051 1544.96 153.952 1538.45 153.952H1508.79V303H1472.17V125.266ZM1571.53 303L1531 223.776L1569.7 223.532L1610.72 301.291V303H1571.53Z" fill="black"/>
</svg>
